<svg id="facebook-logo_6_" data-name="facebook-logo (6)" xmlns="http://www.w3.org/2000/svg" width="11.833" height="21.886" viewBox="0 0 11.833 21.886">
  <path id="Path_21" data-name="Path 21" d="M33.464,0,30.626,0c-3.189,0-5.249,2.114-5.249,5.386V7.869H22.523a.446.446,0,0,0-.446.446v3.6a.446.446,0,0,0,.446.446h2.854v9.079a.446.446,0,0,0,.446.446h3.723a.446.446,0,0,0,.446-.446V12.36h3.337a.446.446,0,0,0,.446-.446v-3.6a.447.447,0,0,0-.446-.446H29.993V5.764c0-1.012.241-1.525,1.559-1.525h1.912a.446.446,0,0,0,.446-.446V.451A.446.446,0,0,0,33.464,0Z" transform="translate(-22.077)" fill="#fff"/>
</svg>
